<svg xmlns="http://www.w3.org/2000/svg" version="1.1" xmlns:xlink="http://www.w3.org/1999/xlink" xmlns:svgjs="http://svgjs.dev/svgjs" width="1500" height="810" viewBox="0 0 1500 810"><g transform="matrix(1,0,0,1,-0.9090909090909918,-0.7263222758550114)"><svg viewBox="0 0 396 214" data-background-color="#000000" preserveAspectRatio="xMidYMid meet" height="810" width="1500" xmlns="http://www.w3.org/2000/svg" xmlns:xlink="http://www.w3.org/1999/xlink"><g id="tight-bounds" transform="matrix(1,0,0,1,0.2400000000000091,0.1918925518925647)"><svg viewBox="0 0 395.52 213.61621489621487" height="213.61621489621487" width="395.52"><g><svg viewBox="0 0 395.52 213.61621489621487" height="213.61621489621487" width="395.52"><g><svg viewBox="0 0 395.52 213.61621489621487" height="213.61621489621487" width="395.52"><g id="textblocktransform"><svg viewBox="0 0 395.52 213.61621489621487" height="213.61621489621487" width="395.52" id="textblock"><g><svg viewBox="0 0 395.52 213.61621489621487" height="213.61621489621487" width="395.52"><g transform="matrix(1,0,0,1,0,0)"><svg width="395.52" viewBox="2.86 -32.4 59.980000000000004 32.4" height="213.61621489621487" data-palette-color="url(#dbabf0b9-81da-4337-b61b-a169f1b50107)"></svg></g></svg></g></svg></g></svg></g><g></g></svg></g><defs></defs><mask id="f9ea0627-074c-437a-bf86-77d8471f07e1"><g id="SvgjsG1353"><svg viewBox="0 0 395.52 213.61621489621487" height="213.61621489621487" width="395.52"><g><svg viewBox="0 0 395.52 213.61621489621487" height="213.61621489621487" width="395.52"><g><svg viewBox="0 0 395.52 213.61621489621487" height="213.61621489621487" width="395.52"><g id="SvgjsG1352"><svg viewBox="0 0 395.52 213.61621489621487" height="213.61621489621487" width="395.52" id="SvgjsSvg1351"><g><svg viewBox="0 0 395.52 213.61621489621487" height="213.61621489621487" width="395.52"><g transform="matrix(1,0,0,1,0,0)"><svg width="395.52" viewBox="2.86 -32.4 59.980000000000004 32.4" height="213.61621489621487" data-palette-color="url(#dbabf0b9-81da-4337-b61b-a169f1b50107)"><path d="M13.65 0L2.86 0 2.86-32.4 13.65-32.4 13.65 0ZM34.11-32.4L15.31-4.59 15.31-20.34 22.88-32.37 34.11-32.4ZM25.68-17.14L34.62 0 22.95 0 19.29-7.54 25.68-17.14ZM43.16 0L43.16-23.66 54.39-23.66 54.39 0 43.16 0ZM34.71-25.34L34.71-32.4 62.84-32.4 62.84-25.34 34.71-25.34Z" opacity="1" transform="matrix(1,0,0,1,0,0)" fill="white" class="wordmark-text-0" id="SvgjsPath1350"></path></svg></g></svg></g></svg></g></svg></g><g></g></svg></g><defs><mask></mask></defs></svg><rect width="395.52" height="213.61621489621487" fill="black" stroke="none" visibility="hidden"></rect></g></mask><linearGradient x1="0" x2="1" y1="0.578" y2="0.595" id="dbabf0b9-81da-4337-b61b-a169f1b50107"><stop stop-color="#dede50" offset="0"></stop><stop stop-color="#559c49" offset="1"></stop></linearGradient><rect width="395.52" height="213.61621489621487" fill="url(#dbabf0b9-81da-4337-b61b-a169f1b50107)" mask="url(#f9ea0627-074c-437a-bf86-77d8471f07e1)" data-fill-palette-color="primary"></rect></svg><rect width="395.52" height="213.61621489621487" fill="none" stroke="none" visibility="hidden"></rect></g></svg></g></svg>